<?xml version="1.0" encoding="UTF-8" standalone="no"?>
<!-- Created with Inkscape (http://www.inkscape.org/) -->

<svg
   width="236.93274mm"
   height="77.103058mm"
   viewBox="0 0 236.93274 77.103058"
   version="1.1"
   id="svg5"
   xml:space="preserve"
   inkscape:export-filename="../../../../../home/ardiansyah/snap/inkscape/10542/black.svg"
   inkscape:export-xdpi="91.439995"
   inkscape:export-ydpi="91.439995"
   inkscape:version="1.2.2 (732a01da63, 2022-12-09, custom)"
   sodipodi:docname="ticketo"
   xmlns:inkscape="http://www.inkscape.org/namespaces/inkscape"
   xmlns:sodipodi="http://sodipodi.sourceforge.net/DTD/sodipodi-0.dtd"
   xmlns="http://www.w3.org/2000/svg"
   xmlns:svg="http://www.w3.org/2000/svg"><sodipodi:namedview
     id="namedview7"
     pagecolor="#ffffff"
     bordercolor="#111111"
     borderopacity="1"
     inkscape:showpageshadow="0"
     inkscape:pageopacity="0"
     inkscape:pagecheckerboard="1"
     inkscape:deskcolor="#d1d1d1"
     inkscape:document-units="mm"
     showgrid="false"
     inkscape:zoom="1.0708779"
     inkscape:cx="540.67788"
     inkscape:cy="106.92162"
     inkscape:window-width="1850"
     inkscape:window-height="1016"
     inkscape:window-x="70"
     inkscape:window-y="27"
     inkscape:window-maximized="1"
     inkscape:current-layer="layer1" /><defs
     id="defs2" /><g
     inkscape:label="Layer 1"
     inkscape:groupmode="layer"
     id="layer1"
     transform="translate(-27.894286,-132.94181)"><path
       d="m 77.646313,133.15342 c -0.353045,0.1319 -0.942622,0.48181 -1.310164,0.77756 -0.36755,0.29575 -11.257486,11.13579 -24.200015,24.08868 -18.400868,18.41561 -23.608871,23.72217 -23.884878,24.3369 -0.244739,0.54468 -0.354272,1.16448 -0.356895,2.01837 -0.0058,1.94571 0.31759,2.4226 4.4109,6.49777 3.986402,3.96895 4.094716,4.03112 5.252199,3.0148 0.923937,-0.81126 1.981147,-1.21655 3.172705,-1.21655 4.041954,0 6.103983,4.7203 3.405039,7.79431 -1.01285,1.15367 -0.94507,1.27349 2.927433,5.17203 1.897647,1.91023 3.803857,3.6835 4.236211,3.94045 0.69596,0.41351 0.966375,0.46713 2.358298,0.46713 1.394371,0 1.661121,-0.0531 2.358305,-0.46921 0.456116,-0.27217 10.772897,-10.46371 24.579963,-24.28187 18.609635,-18.62421 23.870976,-23.98384 24.146986,-24.59874 0.24475,-0.5447 0.35428,-1.16448 0.35689,-2.01837 0.006,-1.94571 -0.31757,-2.4226 -4.41094,-6.49776 -3.986431,-3.96896 -4.094741,-4.03115 -5.252235,-3.01479 -1.446419,1.26999 -3.447481,1.58704 -5.094281,0.80723 -2.887263,-1.3673 -3.609601,-4.96346 -1.48346,-7.38502 1.012845,-1.15365 0.945066,-1.27349 -2.927442,-5.17205 -1.897641,-1.91023 -3.794588,-3.67741 -4.215763,-3.92704 -0.932669,-0.55254 -3.023515,-0.72408 -4.068856,-0.33383 m 0.467293,2.71854 c -0.288236,0.18202 -2.510808,2.32618 -4.939157,4.76502 l -4.414911,4.43415 0.615424,0.59657 c 0.672555,0.65176 0.787675,1.25288 0.357594,1.86674 -0.528088,0.75412 -1.617797,0.6287 -2.441106,-0.28107 l -0.340123,-0.37578 -12.523449,12.52266 -12.523452,12.5226 0.603725,0.791 c 0.671156,0.87923 0.67954,1.44993 0.02951,2.00003 -0.57822,0.48912 -1.22702,0.38328 -1.898868,-0.30991 l -0.596739,-0.6156 -4.681836,4.67715 c -5.01218,5.00696 -5.206088,5.26759 -4.847272,6.51891 0.123156,0.42901 0.997296,1.42582 3.073651,3.50497 l 2.901413,2.90526 0.751508,-0.41995 c 1.198194,-0.66975 3.080121,-0.99206 4.448458,-0.76217 3.213575,0.54031 5.562273,2.89041 6.117781,6.12218 0.234959,1.36747 -0.08454,3.24399 -0.757799,4.44848 l -0.419954,0.75153 2.905255,2.90139 c 2.079148,2.07636 3.075922,2.9505 3.504961,3.07366 1.251296,0.35881 1.511926,0.16491 6.518865,-4.84728 l 4.677126,-4.68185 -0.61561,-0.59674 c -0.672547,-0.65176 -0.787667,-1.25287 -0.357586,-1.86674 0.526689,-0.75221 1.410613,-0.66993 2.367211,0.22011 l 0.441617,0.41087 12.567647,-12.56858 12.567826,-12.56877 -0.562847,-0.58068 c -0.723918,-0.74679 -0.762695,-1.51664 -0.102371,-2.036 0.641292,-0.50451 1.00797,-0.45508 1.77712,0.23986 l 0.666253,0.60196 4.665603,-4.66804 c 4.988986,-4.99141 5.187796,-5.25884 4.832126,-6.49845 -0.12369,-0.43166 -0.98963,-1.42005 -3.063214,-3.49624 l -2.890775,-2.89442 -0.996428,0.49244 c -1.38475,0.68443 -2.891794,0.92532 -4.271829,0.6832 -4.109574,-0.72147 -6.824938,-4.59905 -5.997959,-8.56485 0.145518,-0.69842 0.455064,-1.61047 0.687748,-2.02677 l 0.423096,-0.75692 -3.014083,-2.98302 -3.014081,-2.98317 -0.853006,7e-4 c -0.535244,3.5e-4 -1.048134,0.12386 -1.377073,0.33158 m -6.963972,13.13158 c -0.325796,0.25627 -0.459787,0.52425 -0.458565,0.91713 0.0014,0.46537 0.291555,0.8565 1.798076,2.42347 0.988039,1.0277 1.993025,1.94324 2.233221,2.03461 0.951186,0.36161 1.960014,-0.55028 1.658674,-1.49954 -0.172066,-0.54206 -4.025356,-4.2378 -4.418584,-4.2378 -0.193904,0 -0.559699,0.16298 -0.812822,0.36213 m 6.46349,6.46352 c -0.324925,0.25557 -0.460131,0.52512 -0.459959,0.91711 3.51e-4,0.46889 0.295228,0.85983 1.901141,2.52026 1.718417,1.77677 1.960012,1.96527 2.51989,1.96527 0.686698,0 1.343354,-0.62662 1.343354,-1.28205 0,-0.49159 -3.991114,-4.48272 -4.48269,-4.48272 -0.198798,0 -0.568613,0.16299 -0.821736,0.36213 m 6.481134,6.31975 c -0.397418,0.30186 -0.634649,1.02193 -0.474806,1.44119 0.07318,0.19216 0.960091,1.19452 1.970665,2.22727 1.522939,1.55634 1.926643,1.87792 2.358132,1.87792 0.645822,0 1.206225,-0.45523 1.360305,-1.10509 0.107428,-0.45314 -0.0547,-0.66556 -1.96578,-2.57666 -2.143785,-2.14378 -2.56356,-2.38467 -3.248516,-1.86463 m -14.278029,0.36126 c -0.355838,0.11339 -1.202908,0.76254 -2.027616,1.55439 -0.778933,0.74786 -1.547046,1.35979 -1.706883,1.35979 -0.159838,0 -1.000966,-0.35672 -1.869,-0.79273 -2.23532,-1.12257 -3.657633,-1.08117 -4.836436,0.14096 -1.210942,1.2555 -1.247282,2.6179 -0.129097,4.84432 0.432353,0.86086 0.786104,1.69606 0.786104,1.8559 0,0.15983 -0.613688,0.92988 -1.363802,1.71108 -1.048656,1.09235 -1.416899,1.60977 -1.592985,2.23901 -0.515332,1.84071 0.425717,3.53206 2.304323,4.14155 0.538738,0.17469 0.991709,0.1609 2.503987,-0.076 1.015472,-0.15931 1.955122,-0.2479 2.088061,-0.19671 0.132939,0.051 0.590447,0.7868 1.016514,1.63527 1.2078,2.40478 2.194789,3.14408 3.97033,2.97357 1.092503,-0.10498 2.130681,-0.81475 2.587496,-1.76908 0.190234,-0.39759 0.441086,-1.4122 0.557079,-2.2549 0.116169,-0.84252 0.302912,-1.65746 0.415061,-1.81083 0.13364,-0.18273 0.849513,-0.38658 2.078626,-0.59186 2.043686,-0.34116 2.737553,-0.6832 3.426522,-1.68854 0.47865,-0.69876 0.648801,-2.03462 0.36755,-2.88711 -0.300991,-0.91187 -1.151376,-1.66129 -2.856344,-2.51762 -0.848464,-0.42607 -1.585821,-0.88761 -1.638931,-1.02561 -0.05295,-0.13818 0.03737,-1.04675 0.20072,-2.01923 0.3658,-2.17855 0.196349,-3.02335 -0.80811,-4.02782 -0.950662,-0.95065 -2.1368,-1.22318 -3.473169,-0.79763 m -0.441788,3.6323 c -2.172083,2.21508 -3.05828,2.36478 -5.896104,0.99609 l -1.883142,-0.90822 -0.377856,0.37805 -0.378028,0.37784 0.90821,1.88316 c 1.368687,2.83783 1.218977,3.72403 -0.996075,5.89613 -1.255667,1.23139 -1.497086,1.75948 -0.994682,2.1763 0.190587,0.15807 0.675699,0.14183 2.110418,-0.0713 1.02455,-0.15216 2.132079,-0.22605 2.461017,-0.16439 1.092683,0.20492 1.925946,0.99277 2.709778,2.56183 0.819466,1.64069 1.133035,2.05313 1.560846,2.05313 0.505374,0 0.681111,-0.39952 1.032235,-2.34644 0.51446,-2.85233 1.221427,-3.54463 4.036368,-3.95305 1.614819,-0.23426 2.262569,-0.5246 2.262569,-1.01443 0,-0.4444 -0.397241,-0.75098 -2.028488,-1.56591 -2.474645,-1.23612 -2.892148,-2.11952 -2.427478,-5.13712 0.229019,-1.48713 0.24666,-1.95145 0.08175,-2.15024 -0.422224,-0.5087 -0.945763,-0.27128 -2.181339,0.98856 m -25.284477,10.24368 c -0.151458,0.16803 -0.331037,0.52792 -0.398818,0.79938 -0.113541,0.45541 0.03876,0.65578 1.959664,2.57667 1.318726,1.31873 2.21558,2.083 2.444426,2.083 0.658571,0 1.282038,-0.65648 1.282038,-1.35001 0,-0.56319 -0.189886,-0.81597 -1.894326,-2.52041 -1.687843,-1.68786 -1.961235,-1.89436 -2.505915,-1.89436 -0.361079,0 -0.724431,0.12526 -0.887069,0.30573 m 6.348198,6.61812 c -0.199147,0.25313 -0.362128,0.62295 -0.362128,0.82173 0,0.49158 3.991116,4.48273 4.482691,4.48273 0.658579,0 1.282044,-0.65648 1.282044,-1.35001 0,-0.56319 -0.189892,-0.81597 -1.894331,-2.52042 -1.704441,-1.70445 -1.957215,-1.89433 -2.520407,-1.89433 -0.468172,0 -0.717103,0.11599 -0.987869,0.4603 m 6.463493,6.46353 c -0.199142,0.25312 -0.362129,0.62293 -0.362129,0.82175 0,0.22883 0.764262,1.12568 2.08299,2.44443 1.911095,1.9111 2.123523,2.07321 2.576659,1.96578 0.653513,-0.15495 1.105087,-0.71536 1.105087,-1.3715 0,-0.44371 -0.314619,-0.84654 -1.894327,-2.42643 -1.704441,-1.70445 -1.957213,-1.89434 -2.520412,-1.89434 -0.468164,0 -0.717102,0.11598 -0.987868,0.46031"
       stroke="none"
       fill="#040404"
       fill-rule="evenodd"
       id="path25"
       style="fill:#000000;stroke-width:0.174689" /><text
       xml:space="preserve"
       style="font-size:40.5694px;fill:#000000;stroke-width:0.244989"
       x="81.747635"
       y="209.62114"
       id="text386"><tspan
         sodipodi:role="line"
         id="tspan384"
         style="font-style:normal;font-variant:normal;font-weight:bold;font-stretch:normal;font-size:40.5694px;font-family:Rubik;-inkscape-font-specification:'Rubik Bold';stroke-width:0.244989"
         x="81.747635"
         y="209.62114">TICKETO.</tspan></text><path
       style="fill:#ffcc00;stroke-width:0.933813"
       d="m 257.25721,681.45024 c -0.82294,-1.1556 -2.83858,-4.39299 -4.47921,-7.19422 -1.65206,-2.82077 -4.35486,-5.89013 -6.05785,-6.87947 -2.7675,-1.60775 -3.88775,-1.69456 -11.20576,-0.86832 -11.59244,1.30885 -12.16553,0.43117 -4.93102,-7.55182 3.0993,-3.41996 5.89962,-7.27204 6.22292,-8.56019 0.84059,-3.34916 -0.14152,-7.53336 -3.36916,-14.35412 -4.00065,-8.45429 -2.97513,-9.2687 6.50052,-5.16238 11.17438,4.84247 13.71922,4.43616 22.24414,-3.55152 6.35096,-5.95073 8.33796,-5.77532 7.69068,0.67892 -0.25656,2.55826 -0.46667,7.03421 -0.46691,9.94655 -4.9e-4,6.0774 1.95552,8.91537 8.40389,12.19319 2.05439,1.04428 4.95234,2.75665 6.43989,3.80527 l 2.70464,1.90657 -2.10773,1.70674 c -1.15925,0.9387 -3.03545,1.70673 -4.16932,1.70673 -3.54879,0 -11.7612,2.82394 -13.62101,4.68375 -0.97867,0.97866 -2.43904,4.21218 -3.24528,7.18559 -0.80624,2.97342 -1.89019,6.98202 -2.40879,8.90801 -1.08534,4.03075 -2.04156,4.35391 -4.14464,1.40072 z"
       id="path1144"
       transform="scale(0.26458333)" /></g></svg>
